<?xml version="1.0" standalone="no"?><!DOCTYPE svg PUBLIC "-//W3C//DTD SVG 1.1//EN" "http://www.w3.org/Graphics/SVG/1.1/DTD/svg11.dtd"><svg t="1538319377834" class="icon" style="" viewBox="0 0 1024 1024" version="1.1" xmlns="http://www.w3.org/2000/svg" p-id="4357" xmlns:xlink="http://www.w3.org/1999/xlink" width="512" height="512"><defs><style type="text/css"></style></defs><path d="M401.066667 785.066667c-5.688889 0-5.688889 0-11.377778-2.844445-8.533333-5.688889-14.222222-14.222222-11.377778-25.6l54.044445-216.177778h-128c-8.533333 0-17.066667-5.688889-19.911112-14.222222-5.688889-8.533333-2.844444-17.066667 5.688889-25.6l292.977778-287.288889c5.688889-5.688889 17.066667-8.533333 25.6-5.688889 8.533333 5.688889 14.222222 14.222222 11.377778 25.6l-54.044445 216.177778h128c8.533333 0 17.066667 5.688889 19.911112 14.222222 5.688889 8.533333 2.844444 17.066667-5.688889 25.6l-292.977778 287.288889c-2.844444 8.533333-8.533333 8.533333-14.222222 8.533334z" p-id="4358"></path></svg>